<svg width="40" height="41" viewBox="0 0 40 41" fill="none" xmlns="http://www.w3.org/2000/svg">
<path fill-rule="evenodd" clip-rule="evenodd" d="M13.5001 9C13.3383 9 13.1778 9.00549 13.0187 9.01629C13.265 5.92877 15.8486 3.5 18.9995 3.5H28.9995C32.3132 3.5 34.9995 6.18629 34.9995 9.5V25.5C34.9995 28.8137 32.3132 31.5 28.9995 31.5H28.339C28.4445 31.0168 28.5001 30.5149 28.5001 30V16C28.5001 12.134 25.366 9 21.5001 9H13.5001ZM11 10.5C7.68629 10.5 5 13.1863 5 16.5V32.5C5 35.8137 7.68629 38.5 11 38.5H21C24.3137 38.5 27 35.8137 27 32.5V16.5C27 13.1863 24.3137 10.5 21 10.5H11Z" fill="#26262B"/>
</svg>
